# xmcd CD database file
#
# Track frame offsets:
#	150
#	15551
#	31157
#	52084
#	68042
#	86831
#	103092
#	124087
#	146256
#
# Disc length: 2162 seconds
#
# Revision: 4
# Processed by: cddbd v1.5.2PL0 Copyright (c) Steve Scherf et al.
# Submitted via: CDex 1.70beta2
#
DISCID=74087009
DTITLE=Leonard Cohen, 1934- - Popular Problems
DYEAR=2014
DGENRE=Blues
TTITLE0=Leonard Cohen, Patrick Leonard - Slow
TTITLE1=Leonard Cohen, Patrick Leonard - Almost Like The Blues
TTITLE2=Leonard Cohen, Patrick Leonard - Samson In New Orleans
TTITLE3=Leonard Cohen, Anjani Thomas  - A Street
TTITLE4=Leonard Cohen, Patrick Leonard - Did I Ever Love You
TTITLE5=Leonard Cohen, Patrick Leonard - My Oh My
TTITLE6=Leonard Cohen, Patrick Leonard - Nevermind
TTITLE7=Leonard Cohen - Born In Chains
TTITLE8=Leonard Cohen, Patrick Leonard - You Got Me Singing
EXTD=YEAR: 2014
EXTT0=
EXTT1=
EXTT2=
EXTT3=
EXTT4=
EXTT5=
EXTT6=
EXTT7=
EXTT8=
PLAYORDER=
